<svg width="980" height="551" xmlns="http://www.w3.org/2000/svg" xmlns:xlink="http://www.w3.org/1999/xlink">
<path fill="#ff595e" d="M 247.99 276.87 Q 247.99 276.87 250.11 275.16 252.22 273.45 254.63 272.92 257.04 272.39 259.91 271.75 262.78 271.12 266.11 270.61 269.44 270.10 274.07 269.64 278.71 269.17 283.91 268.73 289.12 268.28 294.32 267.85 299.52 267.41 304.94 266.73 310.35 266.04 317.43 265.25 324.50 264.46 331.96 263.38 339.42 262.30 350.86 260.84 362.29 259.38 370.86 258.01 379.42 256.65 385.55 255.57 391.67 254.50 397.23 253.30 402.78 252.10 408.14 250.85 413.49 249.59 418.24 248.31 422.98 247.04 425.75 246.11 428.51 245.19 430.69 244.48 432.87 243.76 434.91 243.92 436.96 244.08 436.96 244.09 436.96 244.09 436.96 244.09 436.97 244.10 435.54 245.80 434.12 247.51 431.95 248.24 429.78 248.98 426.90 249.94 424.02 250.90 419.21 252.19 414.40 253.48 409.01 254.75 403.62 256.01 397.99 257.22 392.37 258.44 386.21 259.52 380.05 260.60 371.43 261.97 362.80 263.34 351.40 264.80 339.99 266.26 332.47 267.35 324.94 268.44 317.90 269.22 310.85 270.01 305.36 270.70 299.86 271.39 294.66 271.83 289.46 272.27 284.28 272.71 279.10 273.15 274.57 273.61 270.04 274.06 266.84 274.54 263.64 275.02 260.77 275.66 257.90 276.30 255.66 276.78 253.42 277.27 250.71 277.08 248.00 276.89 247.99 276.88 Z" data-drauu_index="0"></path>
</svg>